<?xml version="1.0" encoding="UTF-8"?>
<!-- Generated by jsxcad -->
<!DOCTYPE svg PUBLIC "-//W3C//DTD SVG 1.1 Tiny//EN" "http://www.w3.org/Graphics/SVG/1.1/DTD/svg11-tiny.dtd">
<svg baseProfile="tiny" height="11.500000000000007mm" width="9.959292143521052mm" viewBox="-4.979646071760526 -5.7500000000000036 9.959292143521052 11.500000000000007" version="1.1" stroke="black" stroke-width=".1" fill="none" xmlns="http://www.w3.org/2000/svg">
<path fill="#c0c0c0" stroke="#c0c0c0" d="M3.5208595475486395e-16 -5.749999999999999 L3.5208595475486395e-16 -5.749999999999999 L-4.979646071760521 -2.8750000000000004 L-4.979646071760521 -2.8750000000000004 z"/>
<path fill="#c0c0c0" stroke="#c0c0c0" d="M4.979646071760522 -2.8749999999999996 L4.979646071760522 -2.8749999999999996 L3.5208595475486395e-16 -5.75 L3.5208595475486395e-16 -5.75 z"/>
<path fill="#c0c0c0" stroke="#c0c0c0" d="M3.5208595475486395e-16 5.75 L3.5208595475486395e-16 5.75 L4.979646071760522 2.8749999999999996 L4.979646071760522 2.8749999999999996 z"/>
<path fill="#c0c0c0" stroke="#c0c0c0" d="M4.979646071760523 2.8749999999999996 L4.979646071760523 2.8749999999999996 L4.979646071760523 -2.8749999999999996 L4.979646071760523 -2.8749999999999996 z"/>
<path fill="#c0c0c0" stroke="#c0c0c0" d="M-4.979646071760522 -2.875 L-4.979646071760522 -2.875 L-4.979646071760522 2.874999999999999 L-4.979646071760522 2.874999999999999 z"/>
<path fill="#c0c0c0" stroke="#c0c0c0" d="M-4.979646071760522 2.8749999999999996 L-4.979646071760522 2.8749999999999996 L3.52085954754864e-16 5.749999999999999 L3.52085954754864e-16 5.749999999999999 z"/>
<path fill="#c0c0c0" stroke="#c0c0c0" d="M3.5208595475486404e-16 -5.749999999999999 L-4.979646071760522 -2.875 L-4.979646071760523 2.874999999999999 L3.5208595475486404e-16 5.749999999999999 L4.979646071760523 2.874999999999999 L4.979646071760523 -2.874999999999999 z"/>
<path fill="#c0c0c0" stroke="#c0c0c0" d="M3.5208595475486404e-16 -5.749999999999999 L4.979646071760523 -2.874999999999999 L4.979646071760523 2.874999999999999 L3.5208595475486404e-16 5.749999999999999 L-4.979646071760523 2.874999999999999 L-4.979646071760522 -2.875 z"/>
</svg>